<svg width="24" height="24" viewBox="0 0 24 24" fill="none" xmlns="http://www.w3.org/2000/svg">
    <g clip-path="url(#clip0_391_997)">
        <path d="M12.9875 21.5C15.125 18.9922 20 12.9141 20 9.5C20 5.35938 16.4167 2 12 2C7.58333 2 4 5.35938 4 9.5C4 12.9141 8.875 18.9922 11.0125 21.5C11.525 22.0977 12.475 22.0977 12.9875 21.5ZM12 7C12.7072 7 13.3855 7.26339 13.8856 7.73223C14.3857 8.20107 14.6667 8.83696 14.6667 9.5C14.6667 10.163 14.3857 10.7989 13.8856 11.2678C13.3855 11.7366 12.7072 12 12 12C11.2928 12 10.6145 11.7366 10.1144 11.2678C9.61428 10.7989 9.33333 10.163 9.33333 9.5C9.33333 8.83696 9.61428 8.20107 10.1144 7.73223C10.6145 7.26339 11.2928 7 12 7Z" fill="white"/>
    </g>
    <defs>
        <clipPath id="clip0_391_997">
            <rect width="16" height="20" fill="white" transform="translate(4 2)"/>
        </clipPath>
    </defs>
</svg>
