<svg width="24" height="24" viewBox="0 0 24 24" fill="none" xmlns="http://www.w3.org/2000/svg">
    <g clip-path="url(#clip0_391_991)">
        <path d="M8.79971 3.86466C8.529 3.21075 7.81533 2.86271 7.1333 3.04903L4.03955 3.89278C3.42783 4.06153 3.00244 4.617 3.00244 5.24982C3.00244 13.9475 10.0548 20.9998 18.7524 20.9998C19.3853 20.9998 19.9407 20.5744 20.1095 19.9627L20.9532 16.869C21.1396 16.1869 20.7915 15.4733 20.1376 15.2026L16.7626 13.7963C16.1896 13.5572 15.5251 13.7225 15.1349 14.2041L13.7146 15.9373C11.2396 14.7666 9.23564 12.7627 8.06494 10.2877L9.79814 8.87091C10.2798 8.47716 10.445 7.81622 10.206 7.24318L8.79971 3.86818V3.86466Z" fill="white"/>
    </g>
    <defs>
        <clipPath id="clip0_391_991">
            <rect width="18" height="18" fill="white" transform="translate(3.00244 3)"/>
        </clipPath>
    </defs>
</svg>
